# AST/ASF file generated using VICON BodyLanguage
# -----------------------------------------------
:version 1.10
:name VICON
:units
  mass 1.0
  length 0.45
  angle deg
:documentation
   .ast/.asf automatically generated from VICON data using
   VICON BodyBuilder and BodyLanguage model FoxedUp or BRILLIANT.MOD
:root
   order TX TY TZ RX RY RZ
   axis XYZ
   position 0 0 0  
   orientation 0 0 0 
:bonedata
  begin
     id 1 
     name lhipjoint
     direction 0.521452 -0.77106 0.36545 
     length 2.0933 
     axis 0 0 0  XYZ
  end
  begin
     id 2 
     name lfemur
     direction 0.34202 -0.939693 0  
     length 6.83441  
     axis 0 0 20  XYZ
    dof rx ry rz
    limits (-160.0 20.0)
           (-70.0 70.0)
           (-60.0 70.0)
  end
  begin
     id 3 
     name ltibia
     direction 0.34202 -0.939693 0   
     length 7.28749   
     axis 0 0 20   XYZ
    dof rx
    limits (-10.0 170.0)
  end
  begin
     id 4 
     name lfoot
     direction 0.100608 -0.276418 0.955757   
     length 1.52195   
     axis -90 7.62852e-016 20   XYZ
    dof rx rz
    limits (-45.0 90.0)
           (-70.0 20.0)
  end
  begin
     id 5 
     name ltoes
     direction 1.53558e-011 -4.21907e-011 1   
     length 0.770459   
     axis -90 7.62852e-016 20   XYZ
    dof rx
    limits (-90.0 20.0)
  end
  begin
     id 6 
     name rhipjoint
     direction -0.488071 -0.788702 0.373812   
     length 2.04648  
     axis 0 0 0  XYZ 
  end
  begin
     id 7 
     name rfemur
     direction -0.34202 -0.939693 0   
     length 6.92583   
     axis 0 0 -20   XYZ
    dof rx ry rz
    limits (-160.0 20.0)
           (-70.0 70.0)
           (-70.0 60.0)
  end
  begin
     id 8 
     name rtibia
     direction -0.34202 -0.939693 0   
     length 7.41043   
     axis 0 0 -20   XYZ
    dof rx
    limits (-10.0 170.0)
 end
 begin
     id 9 
     name rfoot
     direction -0.0784433 -0.215521 0.973343   
     length 1.67708  
     axis -90 -7.62852e-016 -20   XYZ
    dof rx rz
    limits (-45.0 90.0)
           (-20.0 70.0)
  end
  begin
     id 10 
     name rtoes
     direction -1.53551e-011 -4.21842e-011 1   
     length 0.849787   
     axis -90 -7.62852e-016 -20   XYZ
    dof rx
    limits (-90.0 20.0)
  end
  begin
     id 11 
     name lowerback
     direction -0.0122332 0.997575 -0.0685192   
     length 1.98724   
     axis 0 0 0   XYZ
    dof rx ry rz
    limits (-20.0 45.0)
           (-30.0 30.0)
           (-30.0 30.0)
  end
  begin
     id 12 
     name upperback
     direction 0.0182347 0.999724 -0.0148421   
     length 1.99029   
     axis 0 0 0   XYZ
    dof rx ry rz
    limits (-20.0 45.0)
           (-30.0 30.0)
           (-30.0 30.0)
  end
  begin
     id 13 
     name thorax
     direction 0.0242908 0.99956 0.0170184   
     length 1.99573   
     axis 0 0 0   XYZ
    dof rx ry rz
    limits (-20.0 45.0)
           (-30.0 30.0)
           (-30.0 30.0)
  end
  begin
     id 14 
     name lowerneck
     direction 0.0654488 0.985533 0.156338   
     length 1.4285   
     axis 0 0 0   XYZ
    dof rx ry rz
    limits (-20.0 45.0)
           (-30.0 30.0)
           (-30.0 30.0)
  end
  begin
     id 15 
     name upperneck
     direction -0.02953 0.998556 -0.0448842   
     length 1.44709   
     axis 0 0 0   XYZ
    dof rx ry rz
    limits (-20.0 45.0)
           (-30.0 30.0)
           (-30.0 30.0)
  end
  begin
     id 16
     name head
     direction -0.0155588 0.999386 -0.0314063  
     length 1.44689  
     axis 0 0 0   XYZ
    dof rx ry rz
    limits (-20.0 45.0)
           (-30.0 30.0)
           (-30.0 30.0)
  end
  begin
     id 17 
     name lclavicle
     direction 0.968229 0.236071 -0.0824755  
     length 3.60593  
     axis 0 0 0   XYZ
    dof ry rz
    limits (-20.0 10.0)
           (0.0 20.0)
  end
  begin
     id 18 
     name lhumerus
     direction 1 -4.48968e-011 7.8138e-029   
     length 5.06035   
     axis 180 -30 -90   XYZ
    dof rx ry rz
    limits (-60.0 90.0)
           (-90.0 90.0)
           (-90.0 90.0)
  end
  begin
     id 19
     name lradius
     direction 1 -4.48967e-011 9.02887e-028   
     length 3.1478   
     axis 180 -30 -90   XYZ
    dof rx
    limits (-10.0 170.0)
  end
  begin
     id 20
     name lwrist
     direction 1 -4.48961e-011 7.20928e-028   
     length 1.5739   
     axis -5.52449e-016 90 90   XYZ
    dof ry
    limits (-180.0 0.0)
 end
  begin
     id 21 
     name lhand
     direction 1 -4.48972e-011 1.44186e-027   
     length 0.606747   
     axis -9.20027e-016 90 90   XYZ
    dof rx rz
    limits (-90.0 90.0)
           (-45.0 45.0)
  end
  begin
     id 22 
     name lfingers
     direction 1 -4.48943e-011 2.88371e-027   
     length 0.489175   
     axis -1.84005e-015 90 90   XYZ
    dof rx
    limits (0.0 90.0)
  end
  begin
     id 23
     name lthumb
     direction 0.707107 -6.34917e-011 0.707107   
     length 0.70236   
     axis -90 45 2.85299e-015   XYZ
    dof rx rz
    limits (-45.0 45.0)
           (-45.0 45.0)
  end
  begin
     id 24 
     name rclavicle
     direction -0.978165 0.207816 0.0022268   
     length 3.35425  
     axis 0 0 0   XYZ 
    dof ry rz
    limits (-10.0 20.0)
           (-20.0 0.0)
  end
  begin
     id 25 
     name rhumerus
     direction -1 -4.48964e-011 -4.02159e-027  
     length 5.12273   
     axis 180 30 90   XYZ
    dof rx ry rz
    limits (-90.0 60.0)
           (-90.0 90.0)
           (-90.0 90.0)
  end
  begin
     id 26 
     name rradius
     direction -1 -4.48966e-011 1.62746e-027   
     length 3.422   
     axis 180 30 90   XYZ
    dof rx
    limits (-10.0 170.0)
  end
  begin
     id 27 
     name rwrist
     direction -1 -4.4896e-011 7.20928e-028   
     length 1.711   
     axis -5.52449e-016 -90 -90   XYZ
    dof ry
    limits (-180.0 0.0)
  end
  begin
     id 28
     name rhand
     direction -1 -4.48979e-011 1.44186e-027   
     length 0.704599   
     axis -9.20027e-016 -90 -90   XYZ
    dof rx rz
    limits (-90.0 90.0)
           (-45.0 45.0)
  end
  begin
     id 29
     name rfingers
     direction -1 -4.48962e-011 2.88371e-027   
     length 0.568066   
     axis -1.84005e-015 -90 -90   XYZ
    dof rx
    limits (0.0 90.0)
  end
  begin
     id 30
     name rthumb
     direction -0.707107 -6.34949e-011 0.707107   
     length 0.815633   
     axis -90 -45 -2.85299e-015   XYZ
    dof rx rz
    limits (-45.0 45.0)
           (-45.0 45.0)
  end
:hierarchy
  begin
    root lhipjoint rhipjoint lowerback
    lhipjoint lfemur
    lfemur ltibia
    ltibia lfoot
    lfoot ltoes
    rhipjoint rfemur
    rfemur rtibia
    rtibia rfoot
    rfoot rtoes
    lowerback upperback
    upperback thorax
    thorax lowerneck lclavicle rclavicle
    lowerneck upperneck
    upperneck head
    lclavicle lhumerus
    lhumerus lradius
    lradius lwrist
    lwrist lhand lthumb
    lhand lfingers
    rclavicle rhumerus
    rhumerus rradius
    rradius rwrist
    rwrist rhand rthumb
    rhand rfingers
  end

#!OML:ASF E:\id_vita\Project 1\Capture day 1\Session 1\Male1.ASF
:FULLY-SPECIFIED
:DEGREES
45
root 49.324 16.149 5.24663 -117.799 -84.8806 129.076
lowerback -1.42529 -2.53923 -5.59154
upperback -1.36544 -3.35763 -0.258456
thorax -0.303609 -1.65214 2.81477
lowerneck -9.44471 2.51478 6.52759
upperneck 5.21929 2.56584 -0.76965
head 3.49945 1.37312 -1.26151
rclavicle 1.72011e-014 -9.93923e-016
rhumerus -30.69 -18.8375 -80.5458
rradius 22.7884
rwrist 10.101
rhand -18.2465 36.3728
rfingers 7.12502
rthumb 8.03246 6.54548
lclavicle 1.72011e-014 -9.93923e-016
lhumerus -23.806 13.2628 83.2277
lradius 16.4089
lwrist -9.16685
lhand -14.1051 46.8905
lfingers 7.12502
lthumb 12.0277 76.5249
rfemur -34.5896 8.74342 6.63022
rtibia 61.2426
rfoot -12.0223 -10.0063
rtoes 12.988
lfemur -10.438 7.32233 -27.8525
ltibia 25.2854
lfoot -27.7218 -0.356837
ltoes 30.308
46
root 49.2694 16.149 5.26326 -122.22 -84.9724 133.658
lowerback -1.47744 -2.61118 -5.24616
upperback -1.45176 -3.45453 -0.0834581
thorax -0.363234 -1.69878 2.80017
lowerneck -9.27766 2.66351 6.32763
upperneck 5.47161 2.80848 -0.846134
head 3.56223 1.49183 -1.23686
rclavicle -2.41337e-014 -3.27249e-014
rhumerus -31.0897 -18.1212 -80.6361
rradius 22.9586
rwrist 9.64073
rhand -18.4183 36.1658
rfingers 7.12502
rthumb 7.86663 6.33219
lclavicle -2.41337e-014 -3.27249e-014
lhumerus -24.0279 13.7742 83.1822
lradius 16.5918
lwrist -9.20826
lhand -14.0055 46.7539
lfingers 7.12502
lthumb 12.1238 76.3827
rfemur -35.6921 8.43721 7.10291
rtibia 61.3637
rfoot -12.7531 -8.46647
rtoes 10.9923
lfemur -10.3109 6.88518 -27.6635
ltibia 25.1766
lfoot -27.785 0.58136
ltoes 30.8462
47
root 49.2179 16.1581 5.27866 -118.293 -85.412 129.714
lowerback -1.1992 -2.72157 -4.9689
upperback -1.2768 -3.6117 -0.0757415
thorax -0.340881 -1.78143 2.65934
lowerneck -10.1689 2.70838 6.32867
upperneck 6.01199 2.77903 -0.643555
head 3.92403 1.49479 -1.16461
rclavicle -2.75814e-015 -5.61567e-015
rhumerus -31.0356 -18.6399 -80.5592
rradius 22.8509
rwrist 9.64242
rhand -18.3437 36.1491
rfingers 7.12502
rthumb 7.93857 6.31822
lclavicle -2.75814e-015 -5.61567e-015
lhumerus -23.3854 13.5518 83.4186
lradius 16.4956
lwrist -9.14933
lhand -13.9349 46.4641
lfingers 7.12502
lthumb 12.1919 76.0888
rfemur -36.2753 7.43882 7.59795
rtibia 61.2036
rfoot -13.6987 -6.94345
rtoes 10.6907
lfemur -10.0451 6.39368 -27.4981
ltibia 25.1382
lfoot -27.8241 0.785104
ltoes 31.2522
48
root 49.1517 16.1582 5.29237 -119.916 -85.5961 131.417
lowerback -1.26231 -2.69421 -4.71028
upperback -1.14992 -3.56766 -0.0371295
thorax -0.191228 -1.76561 2.54873
lowerneck -9.80497 2.51298 6.83635
upperneck 4.80078 2.53994 -1.28496
head 3.44106 1.33663 -1.49008
rclavicle -7.47927e-015 1.72943e-014
rhumerus -31.1325 -19.0149 -80.4434
rradius 22.7568
rwrist 9.71867
rhand -18.0165 36.2868
rfingers 7.12502
rthumb 8.25437 6.46805
lclavicle -7.47927e-015 1.72943e-014
lhumerus -22.9643 13.3029 83.6466
lradius 16.5301
lwrist -9.00473
lhand -13.9368 46.4367
lfingers 7.12502
lthumb 12.1901 76.0615
rfemur -37.0355 6.78084 8.1683
rtibia 60.7638
rfoot -14.6905 -5.24425
rtoes 11.1151
lfemur -9.76287 6.07513 -27.3309
ltibia 24.9961
lfoot -28.0692 1.29354
ltoes 31.3618
49
root 49.098 16.1524 5.30763 -126.314 -85.3642 137.96
lowerback -1.2381 -2.5175 -4.58659
upperback -1.14205 -3.33344 0.000308089
thorax -0.219677 -1.64824 2.52425
lowerneck -9.93153 2.53185 7.20835
upperneck 4.84778 2.52915 -1.5884
head 3.4981 1.32709 -1.66076
rclavicle 4.54099e-015 -1.29707e-014
rhumerus -31.4502 -18.829 -80.435
rradius 22.8987
rwrist 9.56694
rhand -17.7428 36.5035
rfingers 7.12502
rthumb 8.51855 6.69534
lclavicle 4.54099e-015 -1.29707e-014
lhumerus -22.8919 12.6228 84.0315
lradius 16.9815
lwrist -8.36537
lhand -13.8956 47.1189
lfingers 7.12502
lthumb 12.2298 76.7414
rfemur -38.1041 6.40463 8.60953
rtibia 60.078
rfoot -15.0513 -3.45024
rtoes 11.9513
lfemur -9.60705 5.65448 -27.3663
ltibia 24.8652
lfoot -28.3642 2.24869
ltoes 32.2123
